<mxfile host="app.diagrams.net" modified="2023-12-13T15:45:24.049Z" agent="Mozilla/5.0 (X11; Linux x86_64) AppleWebKit/537.36 (KHTML, like Gecko) Chrome/114.0.0.0 Safari/537.36" etag="eZwkf_Rp8_GRkkdMjcFm" version="22.1.8" type="github">
  <diagram name="Página-1" id="x8U_Dv5Ob5EKD8kD6Ay6">
    <mxGraphModel dx="1434" dy="745" grid="1" gridSize="10" guides="1" tooltips="1" connect="1" arrows="1" fold="1" page="1" pageScale="1" pageWidth="827" pageHeight="1169" math="0" shadow="0">
      <root>
        <mxCell id="0" />
        <mxCell id="1" parent="0" />
        <mxCell id="F4CTMy18U6F5XihdKhC9-1" value="Usuario" style="swimlane;align=center;verticalAlign=middle;childLayout=stackLayout;horizontal=1;startSize=26;horizontalStack=0;resizeParent=1;resizeParentMax=0;resizeLast=0;collapsible=1;marginBottom=0;" vertex="1" parent="1">
          <mxGeometry x="120" y="70" width="260" height="328" as="geometry">
            <mxRectangle x="320" y="80" width="220" height="30" as="alternateBounds" />
          </mxGeometry>
        </mxCell>
        <mxCell id="F4CTMy18U6F5XihdKhC9-2" value="- Nombre: Texto/String" style="text;align=left;verticalAlign=middle;spacingLeft=4;spacingRight=4;overflow=hidden;rotatable=0;points=[[0,0.5],[1,0.5]];portConstraint=eastwest;labelBackgroundColor=none;" vertex="1" parent="F4CTMy18U6F5XihdKhC9-1">
          <mxGeometry y="26" width="260" height="34" as="geometry" />
        </mxCell>
        <mxCell id="F4CTMy18U6F5XihdKhC9-23" value="- Teléfono: Entero/Int" style="text;strokeColor=none;fillColor=none;align=left;verticalAlign=middle;spacingLeft=4;spacingRight=4;overflow=hidden;rotatable=0;points=[[0,0.5],[1,0.5]];portConstraint=eastwest;" vertex="1" parent="F4CTMy18U6F5XihdKhC9-1">
          <mxGeometry y="60" width="260" height="34" as="geometry" />
        </mxCell>
        <mxCell id="F4CTMy18U6F5XihdKhC9-26" value="- Lista Reservas: Texto/String" style="text;strokeColor=none;fillColor=none;align=left;verticalAlign=middle;spacingLeft=4;spacingRight=4;overflow=hidden;rotatable=0;points=[[0,0.5],[1,0.5]];portConstraint=eastwest;" vertex="1" parent="F4CTMy18U6F5XihdKhC9-1">
          <mxGeometry y="94" width="260" height="34" as="geometry" />
        </mxCell>
        <mxCell id="F4CTMy18U6F5XihdKhC9-9" value="" style="line;strokeWidth=1;fillColor=none;align=left;verticalAlign=middle;spacingTop=-1;spacingLeft=3;spacingRight=3;rotatable=0;labelPosition=right;points=[];portConstraint=eastwest;strokeColor=inherit;" vertex="1" parent="F4CTMy18U6F5XihdKhC9-1">
          <mxGeometry y="128" width="260" height="8" as="geometry" />
        </mxCell>
        <mxCell id="F4CTMy18U6F5XihdKhC9-12" value="+ setNombre(type String): void" style="text;strokeColor=none;fillColor=none;align=left;verticalAlign=middle;spacingLeft=4;spacingRight=4;overflow=hidden;rotatable=0;points=[[0,0.5],[1,0.5]];portConstraint=eastwest;" vertex="1" parent="F4CTMy18U6F5XihdKhC9-1">
          <mxGeometry y="136" width="260" height="32" as="geometry" />
        </mxCell>
        <mxCell id="F4CTMy18U6F5XihdKhC9-13" value="+ getNombre(): String" style="text;strokeColor=none;fillColor=none;align=left;verticalAlign=middle;spacingLeft=4;spacingRight=4;overflow=hidden;rotatable=0;points=[[0,0.5],[1,0.5]];portConstraint=eastwest;" vertex="1" parent="F4CTMy18U6F5XihdKhC9-1">
          <mxGeometry y="168" width="260" height="32" as="geometry" />
        </mxCell>
        <mxCell id="F4CTMy18U6F5XihdKhC9-24" value="+ setTeléfono(type int): void" style="text;strokeColor=none;fillColor=none;align=left;verticalAlign=middle;spacingLeft=4;spacingRight=4;overflow=hidden;rotatable=0;points=[[0,0.5],[1,0.5]];portConstraint=eastwest;" vertex="1" parent="F4CTMy18U6F5XihdKhC9-1">
          <mxGeometry y="200" width="260" height="32" as="geometry" />
        </mxCell>
        <mxCell id="F4CTMy18U6F5XihdKhC9-25" value="+ getTeléfono(): Int" style="text;strokeColor=none;fillColor=none;align=left;verticalAlign=middle;spacingLeft=4;spacingRight=4;overflow=hidden;rotatable=0;points=[[0,0.5],[1,0.5]];portConstraint=eastwest;" vertex="1" parent="F4CTMy18U6F5XihdKhC9-1">
          <mxGeometry y="232" width="260" height="32" as="geometry" />
        </mxCell>
        <mxCell id="F4CTMy18U6F5XihdKhC9-27" value="+ setListReservas(type List&lt;Reservas&gt;): void" style="text;strokeColor=none;fillColor=none;align=left;verticalAlign=middle;spacingLeft=4;spacingRight=4;overflow=hidden;rotatable=0;points=[[0,0.5],[1,0.5]];portConstraint=eastwest;" vertex="1" parent="F4CTMy18U6F5XihdKhC9-1">
          <mxGeometry y="264" width="260" height="32" as="geometry" />
        </mxCell>
        <mxCell id="F4CTMy18U6F5XihdKhC9-28" value="+ getListReservas(): List&lt;Reservas&gt;" style="text;strokeColor=none;fillColor=none;align=left;verticalAlign=middle;spacingLeft=4;spacingRight=4;overflow=hidden;rotatable=0;points=[[0,0.5],[1,0.5]];portConstraint=eastwest;" vertex="1" parent="F4CTMy18U6F5XihdKhC9-1">
          <mxGeometry y="296" width="260" height="32" as="geometry" />
        </mxCell>
      </root>
    </mxGraphModel>
  </diagram>
</mxfile>
